<?xml version="1.0" encoding="utf-8"?>
<!-- Generator: Adobe Illustrator 16.0.0, SVG Export Plug-In . SVG Version: 6.00 Build 0)  -->
<!DOCTYPE svg PUBLIC "-//W3C//DTD SVG 1.1//EN" "http://www.w3.org/Graphics/SVG/1.1/DTD/svg11.dtd">
<svg version="1.1" id="图层_1" xmlns="http://www.w3.org/2000/svg" xmlns:xlink="http://www.w3.org/1999/xlink" x="0px" y="0px"
	 width="80px" height="80px" viewBox="0 0 80 80" enable-background="new 0 0 80 80" xml:space="preserve">
<linearGradient id="BLUE_4_1_" gradientUnits="userSpaceOnUse" x1="144.6191" y1="-1739.3472" x2="144.6191" y2="-1815.3755" gradientTransform="matrix(1 0 0 -1 -104.6191 -1737.3613)">
	<stop  offset="0.1558" style="stop-color:#BE1428"/>
	<stop  offset="1" style="stop-color:#8F141E"/>
</linearGradient>
<path id="BLUE_4_2_" fill="url(#BLUE_4_1_)" d="M2.057,39.989C2.057,68.16,11.89,78.014,40,78.014
	c28.113,0,37.943-9.854,37.943-38.024c0-27.552-9.416-37.576-36.133-38.003h-3.621C11.475,2.413,2.057,12.437,2.057,39.989z"/>
<linearGradient id="SVGID_1_" gradientUnits="userSpaceOnUse" x1="40.0005" y1="78.0137" x2="40.0005" y2="1.9863">
	<stop  offset="0" style="stop-color:#000000;stop-opacity:0.6"/>
	<stop  offset="0.5" style="stop-color:#858585;stop-opacity:0.2"/>
	<stop  offset="1" style="stop-color:#FF8992;stop-opacity:0.6"/>
</linearGradient>
<path opacity="0.5" fill="url(#SVGID_1_)" enable-background="new    " d="M41.811,1.986H38.19
	C11.475,2.413,2.057,12.437,2.057,39.989C2.057,68.16,11.89,78.014,40,78.014c28.113,0,37.943-9.854,37.943-38.024
	C77.943,12.437,68.527,2.413,41.811,1.986z M40,77.014c-27.621,0-36.943-9.343-36.943-37.024c0-26.905,9.198-36.588,35.149-37.003
	h3.604c25.935,0.415,35.133,10.098,35.133,37.003C76.943,67.671,67.621,77.014,40,77.014z"/>
<g>
	<path opacity="0.01" enable-background="new    " d="M51.559,66.473c-0.785,0-1.547-0.229-2.201-0.66l-8.065-5.324H19.256
		c-3.57,0-6.477-2.905-6.477-6.477V28.004c0-3.571,2.904-6.477,6.477-6.477h41.487c3.571,0,6.478,2.906,6.478,6.477v26.008
		c0,3.57-2.906,6.477-6.478,6.477h-5.185v1.984c0,1.473-0.807,2.821-2.104,3.521C52.868,66.309,52.213,66.473,51.559,66.473z"/>
	<path opacity="0.03" enable-background="new    " d="M51.559,65.473c-0.588,0-1.16-0.17-1.65-0.494l-8.315-5.49H19.256
		c-3.02,0-5.477-2.457-5.477-5.477V28.004c0-3.02,2.457-5.477,5.477-5.477h41.487c3.021,0,5.478,2.457,5.478,5.477v26.008
		c0,3.02-2.457,5.477-5.478,5.477h-6.185v2.984c0,1.104-0.604,2.116-1.578,2.641C52.539,65.35,52.049,65.473,51.559,65.473z
		 M29.379,49.244V32.77h-0.331v16.474H29.379L29.379,49.244z M44.279,32.77c0.541,0.335,0.968,0.838,1.207,1.435
		c0.238-0.596,0.666-1.099,1.205-1.435H44.279z"/>
	<path opacity="0.05" enable-background="new    " d="M51.559,64.473c-0.393,0-0.772-0.113-1.101-0.33l-8.565-5.654H19.256
		c-2.468,0-4.477-2.008-4.477-4.477V28.004c0-2.469,2.008-4.477,4.477-4.477h41.487c2.469,0,4.478,2.008,4.478,4.477v26.008
		c0,2.469-2.009,4.477-4.478,4.477h-7.185v3.984c0,0.736-0.404,1.411-1.053,1.762C52.212,64.391,51.887,64.473,51.559,64.473z
		 M46.271,50.244V35.32c0-1.104,0.896-2,2-2h3.68v-1.55h-12.93v1.55h3.68c1.104,0,2,0.897,2,2v14.924H46.271z M30.379,50.244V31.77
		h-2.331v18.474H30.379L30.379,50.244z"/>
	<path opacity="0.07" enable-background="new    " d="M51.559,63.473c-0.191,0-0.385-0.056-0.551-0.164l-8.814-5.82H19.256
		c-1.917,0-3.477-1.561-3.477-3.477V28.004c0-1.917,1.56-3.477,3.477-3.477h41.487c1.918,0,3.478,1.56,3.478,3.477v26.008
		c0,1.916-1.56,3.477-3.478,3.477h-8.185v4.984c0,0.368-0.203,0.707-0.526,0.881C51.884,63.434,51.721,63.473,51.559,63.473z
		 M47.271,51.244V35.32c0-0.552,0.446-1,1-1h4.68v-3.55h-14.93v3.55h4.68c0.553,0,1,0.448,1,1v15.924H47.271z M31.379,51.244V30.77
		h-4.331v20.474H31.379L31.379,51.244z"/>
	<path opacity="0.1" enable-background="new    " d="M63.221,28.004v26.008c0,1.367-1.109,2.477-2.478,2.477h-9.185v5.986
		l-9.064-5.986H19.257c-1.368,0-2.478-1.109-2.478-2.477V28.004c0-1.368,1.109-2.477,2.478-2.477h41.487
		C62.111,25.527,63.221,26.636,63.221,28.004z M26.049,52.244h6.331V29.77h-6.331V52.244z M37.021,35.32h5.68v16.925h5.57V35.32
		h5.68v-5.55h-16.93V35.32z"/>
	
		<linearGradient id="SVGID_2_" gradientUnits="userSpaceOnUse" x1="210.7803" y1="-176.1948" x2="210.7803" y2="-139.2476" gradientTransform="matrix(1 0 0 -1 -170.7793 -115.7207)">
		<stop  offset="0" style="stop-color:#E0E0E0"/>
		<stop  offset="0.828" style="stop-color:#F8F8F8"/>
	</linearGradient>
	<path fill="url(#SVGID_2_)" d="M63.221,26.004v26.008c0,1.367-1.109,2.477-2.478,2.477h-9.185v5.986l-9.064-5.986H19.257
		c-1.368,0-2.478-1.109-2.478-2.477V26.004c0-1.368,1.109-2.477,2.478-2.477h41.487C62.111,23.527,63.221,24.636,63.221,26.004z
		 M26.049,50.244h6.331V27.77h-6.331V50.244z M37.021,33.32h5.68v16.925h5.57V33.32h5.68v-5.55h-16.93V33.32z"/>
	<path opacity="0.05" enable-background="new    " d="M60.743,52.486h-9.185v2h9.185c1.368,0,2.478-1.108,2.478-2.477v-2
		C63.221,51.378,62.111,52.486,60.743,52.486z"/>
	<path opacity="0.05" enable-background="new    " d="M19.257,52.486c-1.368,0-2.478-1.108-2.478-2.477v2
		c0,1.368,1.109,2.477,2.478,2.477h23.238l9.063,5.986v-2l-9.063-5.986H19.257z"/>
	<g>
		<rect x="26.049" y="50.244" fill="#FFFFFF" width="6.331" height="1"/>
		<rect x="42.702" y="50.244" fill="#FFFFFF" width="5.569" height="1"/>
		<path fill="#FFFFFF" d="M60.743,23.527H19.257c-1.368,0-2.478,1.109-2.478,2.477v1c0-1.368,1.109-2.477,2.478-2.477h41.487
			c1.367,0,2.477,1.109,2.477,2.477v-1C63.221,24.636,62.111,23.527,60.743,23.527z"/>
		<rect x="37.021" y="33.32" fill="#FFFFFF" width="5.68" height="1"/>
		<rect x="48.271" y="33.32" fill="#FFFFFF" width="5.68" height="1"/>
	</g>
</g>
</svg>
