<?xml version="1.0" encoding="utf-8"?>
<!-- Generator: Adobe Illustrator 17.1.0, SVG Export Plug-In . SVG Version: 6.00 Build 0)  -->
<!DOCTYPE svg PUBLIC "-//W3C//DTD SVG 1.1//EN" "http://www.w3.org/Graphics/SVG/1.1/DTD/svg11.dtd">
<svg version="1.1" id="图层_1" xmlns="http://www.w3.org/2000/svg" xmlns:xlink="http://www.w3.org/1999/xlink" x="0px" y="0px"
	 width="30px" height="30px" viewBox="0 0 30 30" enable-background="new 0 0 30 30" xml:space="preserve">
<path fill-opacity="0.15" d="M15,3.048L15,3.048C6.148,3.048,3.049,6.147,3.049,15c0,8.855,3.099,11.952,11.952,11.952l0,0
	c8.853,0,11.951-3.096,11.951-11.952C26.952,6.147,23.853,3.048,15,3.048z"/>
<path opacity="0.8" fill="#FFFFFF" d="M14.103,10.323L6.93,17.806c-0.492,0.517-0.492,1.352,0,1.87c0.497,0.517,1.3,0.517,1.794,0
	L15,13.129l6.276,6.546c0.494,0.516,1.297,0.516,1.792,0c0.494-0.517,0.494-1.355,0-1.871l-7.173-7.481
	C15.401,9.807,14.598,9.807,14.103,10.323z"/>
</svg>
