<?xml version="1.0" encoding="utf-8"?>
<!-- Generator: Adobe Illustrator 17.1.0, SVG Export Plug-In . SVG Version: 6.00 Build 0)  -->
<!DOCTYPE svg PUBLIC "-//W3C//DTD SVG 1.1//EN" "http://www.w3.org/Graphics/SVG/1.1/DTD/svg11.dtd">
<svg version="1.1" id="图层_1" xmlns="http://www.w3.org/2000/svg" xmlns:xlink="http://www.w3.org/1999/xlink" x="0px" y="0px"
	 width="44px" height="44px" viewBox="0 0 44 44" enable-background="new 0 0 44 44" xml:space="preserve">
<path opacity="0.5" fill="#787878" d="M22,40C9.765,40,5,35.234,5,23S9.765,6,22,6c12.233,0,17,4.766,17,17S34.233,40,22,40z"/>
<rect fill="none" width="44" height="44"/>
<path fill="#FFFFFF" d="M21.196,20.841c0.442-0.442,1.165-0.442,1.607,0l7.14,7.141c0.442,0.442,1.165,0.442,1.608,0l0.805-0.805
	c0.442-0.443,0.442-1.166,0-1.608l-9.552-9.552c-0.442-0.442-1.165-0.442-1.607,0l-9.553,9.552c-0.441,0.442-0.441,1.165,0,1.608
	l0.803,0.805c0.442,0.442,1.167,0.442,1.609,0L21.196,20.841z"/>
</svg>
